<?xml version="1.0" encoding="utf-8"?>
<svg version="1.1" xmlns:xlink="http://www.w3.org/1999/xlink" width="50px" height="6px" xmlns="http://www.w3.org/2000/svg">
  <g transform="matrix(1 0 0 1 -123 -540 )">
    <path d="M 49.0056818181818 0.4375  C 49.6685606060606 0.729166666666664  50 1.08333333333333  50 1.5  L 50 4.5  C 50 4.91666666666667  49.6685606060606 5.27083333333333  49.0056818181818 5.5625  C 48.342803030303 5.85416666666667  47.5378787878788 6  46.5909090909091 6  L 3.40909090909091 6  C 2.46212121212121 6  1.65719696969697 5.85416666666667  0.994318181818182 5.5625  C 0.331439393939394 5.27083333333333  0 4.91666666666667  0 4.5  L 0 1.5  C 0 1.08333333333333  0.331439393939394 0.729166666666664  0.994318181818182 0.4375  C 1.65719696969697 0.145833333333332  2.46212121212121 0  3.40909090909091 0  L 46.5909090909091 0  C 47.5378787878788 0  48.342803030303 0.145833333333332  49.0056818181818 0.4375  Z " fill-rule="nonzero" fill="#000000" stroke="none" transform="matrix(1 0 0 1 123 540 )" />
  </g>
</svg>