<?xml version="1.0" encoding="utf-8"?>
<svg version="1.1" xmlns:xlink="http://www.w3.org/1999/xlink" width="11px" height="10px" xmlns="http://www.w3.org/2000/svg">
  <g transform="matrix(1 0 0 1 -938 -378 )">
    <path d="M 0.846153846153846 7.67857142857143  L 0.846153846153846 9.28571428571429  L 2.75 9.28571428571429  L 2.75 7.67857142857143  L 0.846153846153846 7.67857142857143  Z M 3.17307692307692 7.67857142857143  L 3.17307692307692 9.28571428571429  L 5.28846153846154 9.28571428571429  L 5.28846153846154 7.67857142857143  L 3.17307692307692 7.67857142857143  Z M 0.846153846153846 5.53571428571429  L 0.846153846153846 7.32142857142857  L 2.75 7.32142857142857  L 2.75 5.53571428571429  L 0.846153846153846 5.53571428571429  Z M 3.17307692307692 5.53571428571429  L 3.17307692307692 7.32142857142857  L 5.28846153846154 7.32142857142857  L 5.28846153846154 5.53571428571429  L 3.17307692307692 5.53571428571429  Z M 0.846153846153846 3.57142857142857  L 0.846153846153846 5.17857142857143  L 2.75 5.17857142857143  L 2.75 3.57142857142857  L 0.846153846153846 3.57142857142857  Z M 5.71153846153846 7.67857142857143  L 5.71153846153846 9.28571428571429  L 7.82692307692308 9.28571428571429  L 7.82692307692308 7.67857142857143  L 5.71153846153846 7.67857142857143  Z M 3.17307692307692 3.57142857142857  L 3.17307692307692 5.17857142857143  L 5.28846153846154 5.17857142857143  L 5.28846153846154 3.57142857142857  L 3.17307692307692 3.57142857142857  Z M 8.25 7.67857142857143  L 8.25 9.28571428571429  L 10.1538461538462 9.28571428571429  L 10.1538461538462 7.67857142857143  L 8.25 7.67857142857143  Z M 5.71153846153846 5.53571428571429  L 5.71153846153846 7.32142857142857  L 7.82692307692308 7.32142857142857  L 7.82692307692308 5.53571428571429  L 5.71153846153846 5.53571428571429  Z M 3.32181490384615 2.62555803571429  C 3.36368189102564 2.59021577380952  3.38461538461539 2.54836309523809  3.38461538461539 2.5  L 3.38461538461539 0.892857142857143  C 3.38461538461539 0.844494047619048  3.36368189102564 0.802641369047619  3.32181490384615 0.767299107142857  C 3.27994791666667 0.731956845238094  3.23036858974359 0.714285714285714  3.17307692307692 0.714285714285714  L 2.75 0.714285714285714  C 2.69270833333333 0.714285714285714  2.64312900641026 0.731956845238094  2.60126201923077 0.767299107142857  C 2.55939503205128 0.802641369047619  2.53846153846154 0.844494047619048  2.53846153846154 0.892857142857143  L 2.53846153846154 2.5  C 2.53846153846154 2.54836309523809  2.55939503205128 2.59021577380952  2.60126201923077 2.62555803571429  C 2.64312900641026 2.66090029761905  2.69270833333333 2.67857142857143  2.75 2.67857142857143  L 3.17307692307692 2.67857142857143  C 3.23036858974359 2.67857142857143  3.27994791666667 2.66090029761905  3.32181490384615 2.62555803571429  Z M 8.25 5.53571428571429  L 8.25 7.32142857142857  L 10.1538461538462 7.32142857142857  L 10.1538461538462 5.53571428571429  L 8.25 5.53571428571429  Z M 5.71153846153846 3.57142857142857  L 5.71153846153846 5.17857142857143  L 7.82692307692308 5.17857142857143  L 7.82692307692308 3.57142857142857  L 5.71153846153846 3.57142857142857  Z M 8.25 3.57142857142857  L 8.25 5.17857142857143  L 10.1538461538462 5.17857142857143  L 10.1538461538462 3.57142857142857  L 8.25 3.57142857142857  Z M 8.39873798076923 2.62555803571429  C 8.44060496794872 2.59021577380952  8.46153846153846 2.54836309523809  8.46153846153846 2.5  L 8.46153846153846 0.892857142857143  C 8.46153846153846 0.844494047619048  8.44060496794872 0.802641369047619  8.39873798076923 0.767299107142857  C 8.35687099358974 0.731956845238094  8.30729166666667 0.714285714285714  8.25 0.714285714285714  L 7.82692307692308 0.714285714285714  C 7.76963141025641 0.714285714285714  7.72005208333333 0.731956845238094  7.67818509615385 0.767299107142857  C 7.63631810897436 0.802641369047619  7.61538461538462 0.844494047619048  7.61538461538462 0.892857142857143  L 7.61538461538462 2.5  C 7.61538461538462 2.54836309523809  7.63631810897436 2.59021577380952  7.67818509615385 2.62555803571429  C 7.72005208333333 2.66090029761905  7.76963141025641 2.67857142857143  7.82692307692308 2.67857142857143  L 8.25 2.67857142857143  C 8.30729166666667 2.67857142857143  8.35687099358974 2.66090029761905  8.39873798076923 2.62555803571429  Z M 10.7487980769231 1.640625  C 10.916266025641 1.78199404761905  11 1.94940476190476  11 2.14285714285714  L 11 9.28571428571429  C 11 9.47916666666667  10.916266025641 9.64657738095238  10.7487980769231 9.78794642857143  C 10.5813301282051 9.92931547619048  10.3830128205128 10  10.1538461538462 10  L 0.846153846153846 10  C 0.61698717948718 10  0.418669871794872 9.92931547619048  0.251201923076923 9.78794642857143  C 0.0837339743589744 9.64657738095238  0 9.47916666666667  0 9.28571428571429  L 0 2.14285714285714  C 0 1.94940476190476  0.0837339743589744 1.78199404761905  0.251201923076923 1.640625  C 0.418669871794872 1.49925595238095  0.61698717948718 1.42857142857143  0.846153846153846 1.42857142857143  L 1.69230769230769 1.42857142857143  L 1.69230769230769 0.892857142857143  C 1.69230769230769 0.647321428571429  1.7958733974359 0.437127976190476  2.00300480769231 0.262276785714286  C 2.21013621794872 0.0874255952380953  2.45913461538462 0  2.75 0  L 3.17307692307692 0  C 3.46394230769231 0  3.71294070512821 0.0874255952380953  3.92007211538462 0.262276785714286  C 4.12720352564103 0.437127976190476  4.23076923076923 0.647321428571429  4.23076923076923 0.892857142857143  L 4.23076923076923 1.42857142857143  L 6.76923076923077 1.42857142857143  L 6.76923076923077 0.892857142857143  C 6.76923076923077 0.647321428571429  6.87279647435897 0.437127976190476  7.07992788461539 0.262276785714286  C 7.2870592948718 0.0874255952380953  7.53605769230769 0  7.82692307692308 0  L 8.25 0  C 8.54086538461539 0  8.78986378205128 0.0874255952380953  8.99699519230769 0.262276785714286  C 9.2041266025641 0.437127976190476  9.30769230769231 0.647321428571429  9.30769230769231 0.892857142857143  L 9.30769230769231 1.42857142857143  L 10.1538461538462 1.42857142857143  C 10.3830128205128 1.42857142857143  10.5813301282051 1.49925595238095  10.7487980769231 1.640625  Z " fill-rule="nonzero" fill="#8c8c8c" stroke="none" transform="matrix(1 0 0 1 938 378 )" />
  </g>
</svg>