<?xml version="1.0" encoding="utf-8"?>
<svg version="1.1" xmlns:xlink="http://www.w3.org/1999/xlink" width="16px" height="16px" viewBox="498 566  16 16" xmlns="http://www.w3.org/2000/svg">
  <path d="M 506 566  C 510.48 566  514 569.52  514 574  C 514 578.48  510.48 582  506 582  C 501.52 582  498 578.48  498 574  C 498 569.52  501.52 566  506 566  Z " fill-rule="nonzero" fill="#ffffff" stroke="none" />
  <path d="M 506 566.5  C 510.2 566.5  513.5 569.8  513.5 574  C 513.5 578.2  510.2 581.5  506 581.5  C 501.8 581.5  498.5 578.2  498.5 574  C 498.5 569.8  501.8 566.5  506 566.5  Z " stroke-width="1" stroke="#8c8c8c" fill="none" />
  <path d="M 506 578  C 503.76 578  502 576.24  502 574  C 502 571.76  503.76 570  506 570  C 508.24 570  510 571.76  510 574  C 510 576.24  508.24 578  506 578  " fill-rule="nonzero" fill="#8c8c8c" stroke="none" />
</svg>