<?xml version="1.0" encoding="utf-8"?>
<svg version="1.1" xmlns:xlink="http://www.w3.org/1999/xlink" width="16px" height="16px" viewBox="498 586  16 16" xmlns="http://www.w3.org/2000/svg">
  <path d="M 506 586  C 510.48 586  514 589.52  514 594  C 514 598.48  510.48 602  506 602  C 501.52 602  498 598.48  498 594  C 498 589.52  501.52 586  506 586  Z " fill-rule="nonzero" fill="#f0f0f0" stroke="none" />
  <path d="M 506 586.5  C 510.2 586.5  513.5 589.8  513.5 594  C 513.5 598.2  510.2 601.5  506 601.5  C 501.8 601.5  498.5 598.2  498.5 594  C 498.5 589.8  501.8 586.5  506 586.5  Z " stroke-width="1" stroke="#8c8c8c" fill="none" />
  <path d="M 506 598  C 503.76 598  502 596.24  502 594  C 502 591.76  503.76 590  506 590  C 508.24 590  510 591.76  510 594  C 510 596.24  508.24 598  506 598  " fill-rule="nonzero" fill="#8c8c8c" stroke="none" />
</svg>